<?xml version="1.0" encoding="UTF-8" standalone="no"?>
<!-- Created with Inkscape (http://www.inkscape.org/) -->

<svg
   width="179.3875mm"
   height="46.831249mm"
   viewBox="0 0 179.3875 46.831249"
   version="1.1"
   id="svg1"
   xml:space="preserve"
   inkscape:version="1.4.2 (ebf0e940, 2025-05-08)"
   sodipodi:docname="logo.svg"
   xmlns:inkscape="http://www.inkscape.org/namespaces/inkscape"
   xmlns:sodipodi="http://sodipodi.sourceforge.net/DTD/sodipodi-0.dtd"
   xmlns="http://www.w3.org/2000/svg"
   xmlns:svg="http://www.w3.org/2000/svg"><sodipodi:namedview
     id="namedview1"
     pagecolor="#ffffff"
     bordercolor="#000000"
     borderopacity="0.25"
     inkscape:showpageshadow="2"
     inkscape:pageopacity="0.0"
     inkscape:pagecheckerboard="0"
     inkscape:deskcolor="#d1d1d1"
     inkscape:document-units="mm"
     inkscape:zoom="0.73573789"
     inkscape:cx="188.24639"
     inkscape:cy="-97.860938"
     inkscape:window-width="1376"
     inkscape:window-height="693"
     inkscape:window-x="0"
     inkscape:window-y="34"
     inkscape:window-maximized="0"
     inkscape:current-layer="layer1" /><defs
     id="defs1" /><g
     inkscape:label="Layer 1"
     inkscape:groupmode="layer"
     id="layer1"
     transform="translate(-17.039159,-91.016671)"><path
       style="fill:#b4e4c0;fill-opacity:1"
       d="m 17.039159,130.04271 v -7.80521 h 32.27126 32.27126 l 0.07405,3.37344 0.07405,3.37344 h 2.248958 2.248958 l 0.06874,-12.50156 0.06874,-12.50157 h 7.141159 7.141166 v 5.55625 5.55625 h 4.10104 4.10104 v -5.29166 -5.29167 h 20.63749 20.6375 v -6.746875 -6.746874 h 23.15104 23.15104 v 13.493749 13.49375 h -3.57188 -3.57187 V 122.50209 127 h -6.48229 -6.48229 v -2.51354 -2.51354 h -10.71563 -10.71562 v 1.19062 1.19063 h 2.64583 2.64583 v 6.08542 6.08541 H 145.75894 131.33915 V 131.7625 127 h -5.42395 -5.42396 v 5.42396 5.42396 h -5.82084 -5.82083 V 132.42396 127 h -4.10104 -4.10104 v 5.42396 5.42396 H 93.512404 86.37732 l -0.07481,-2.97656 -0.07481,-2.97657 h -2.248958 -2.248958 l -0.07481,2.97657 -0.07481,2.97656 h -32.270499 -32.2705 z"
       id="path9" /></g></svg>
